<?xml version="1.0" encoding="UTF-8" standalone="no"?>
<!DOCTYPE svg PUBLIC "-//W3C//DTD SVG 1.1//EN"
 "http://www.w3.org/Graphics/SVG/1.1/DTD/svg11.dtd">
<!-- Generated by graphviz version 6.0.1 (20220911.1526)
 -->
<!-- Title: G Pages: 1 -->
<svg width="102pt" height="260pt"
 viewBox="0.00 0.00 101.99 260.00" xmlns="http://www.w3.org/2000/svg" xmlns:xlink="http://www.w3.org/1999/xlink">
<g id="graph0" class="graph" transform="scale(1 1) rotate(0) translate(4 256)">
<title>G</title>
<polygon fill="white" stroke="none" points="-4,4 -4,-256 97.99,-256 97.99,4 -4,4"/>
<!-- 81 -->
<g id="node1" class="node">
<title>81</title>
<ellipse fill="none" stroke="black" cx="59.55" cy="-234" rx="27" ry="18"/>
<text text-anchor="middle" x="59.55" y="-230.3" font-family="Times,serif" font-size="14.00">81</text>
</g>
<!-- 81.a -->
<g id="node2" class="node">
<title>81.a</title>
<ellipse fill="none" stroke="black" cx="32.55" cy="-162" rx="27" ry="18"/>
<text text-anchor="middle" x="32.55" y="-158.3" font-family="Times,serif" font-size="14.00">81.a</text>
</g>
<!-- 81&#45;&#45;81.a -->
<g id="edge1" class="edge">
<title>81&#45;&#45;81.a</title>
<path fill="none" stroke="black" d="M53.15,-216.41C48.91,-205.41 43.36,-191.03 39.09,-179.96"/>
</g>
<!-- 81.a1 -->
<g id="node3" class="node">
<title>81.a1</title>
<ellipse fill="none" stroke="black" cx="30.55" cy="-90" rx="30.59" ry="18"/>
<text text-anchor="middle" x="30.55" y="-86.3" font-family="Times,serif" font-size="14.00">81.a1</text>
</g>
<!-- 81.a&#45;&#45;81.a1 -->
<g id="edge2" class="edge">
<title>81.a&#45;&#45;81.a1</title>
<path fill="none" stroke="black" d="M32.05,-143.7C31.74,-132.85 31.34,-118.92 31.04,-108.1"/>
</g>
<!-- 81.a1b -->
<g id="node4" class="node">
<title>81.a1b</title>
<ellipse fill="none" stroke="black" cx="59.55" cy="-18" rx="34.39" ry="18"/>
<text text-anchor="middle" x="59.55" y="-14.3" font-family="Times,serif" font-size="14.00">81.a1b</text>
</g>
<!-- 81.a1&#45;&#45;81.a1b -->
<g id="edge3" class="edge">
<title>81.a1&#45;&#45;81.a1b</title>
<path fill="none" stroke="black" d="M37.42,-72.41C41.98,-61.41 47.94,-47.03 52.52,-35.96"/>
</g>
<!-- 81.a1b&#45;&#45;81 -->
<g id="edge4" class="edge">
<title>81.a1b&#45;&#45;81</title>
<path fill="none" stroke="black" d="M64.01,-36.05C66.48,-46.37 69.3,-59.85 70.55,-72 75.45,-119.76 73.24,-132.22 68.55,-180 67.36,-192.07 65.06,-205.55 63.08,-215.9"/>
</g>
</g>
</svg>
